<svg xmlns="http://www.w3.org/2000/svg" width="185" height="235" fill="none" viewBox="0 0 185 235">
  <path fill="#fff" d="m17.582 205.59 1.466 9.923h-6.726l5.26-9.923Zm-2.402-6.807L0 227.21h6.942l3.507-6.447h8.767l1.08 6.447h6.222l-4.348-28.427h-6.99Zm13.86 28.427 3.987-20.949H38l-.144 2.182a20.497 20.497 0 0 1 3.483-1.534 19.19 19.19 0 0 1 3.891-.983l-.84 4.506c-.81.135-1.611.311-2.403.527-.88.24-1.745.504-2.594.791-.74.247-1.455.56-2.137.935l-2.787 14.621-5.428-.096Zm44.94.312a8.306 8.306 0 0 1-3.866-.839 5.833 5.833 0 0 1-2.402-2.397 6.651 6.651 0 0 1-.817-3.332c0-.563.056-1.125.168-1.677l2.402-11.985h5.26l-2.353 11.601a7.624 7.624 0 0 0-.169 1.534 1.937 1.937 0 0 0 .649 1.63c.622.393 1.356.57 2.09.503a3.822 3.822 0 0 0 2.666-.839 5.193 5.193 0 0 0 1.273-2.828l2.21-11.625h5.38l-2.402 12.248a9.58 9.58 0 0 1-3.219 6.112 11.071 11.071 0 0 1-6.797 1.87M49.433 235h-1.61l-1.897-.168c-.625 0-1.13-.168-1.514-.239l.89-4.555a11.01 11.01 0 0 0 2.017.408c.7.105 1.406.161 2.114.168a12.21 12.21 0 0 0 4.804-.839 3.868 3.868 0 0 0 2.401-2.972l.193-1.103a10.278 10.278 0 0 1-5.693 1.582 8.857 8.857 0 0 1-4.323-.983 5.634 5.634 0 0 1-2.619-3.187 11.316 11.316 0 0 1-.168-5.777 15.829 15.829 0 0 1 3.915-8.533 9.609 9.609 0 0 1 7.206-2.9 6.763 6.763 0 0 1 3.195.623 7.216 7.216 0 0 1 2.234 1.75l.672-1.942h4.612l-3.699 19.511a12.616 12.616 0 0 1-1.97 4.794 9.822 9.822 0 0 1-4.083 3.283 16.31 16.31 0 0 1-6.677 1.199V235Zm3.65-12.032a6.747 6.747 0 0 0 2.403-.432 7.509 7.509 0 0 0 2.161-1.246l1.754-9.132a4.983 4.983 0 0 0-1.61-1.438 4.673 4.673 0 0 0-2.185-.48 4.815 4.815 0 0 0-4.012 1.846 12.637 12.637 0 0 0-2.09 5.201 6.266 6.266 0 0 0 .169 4.386c.528.815 1.657 1.223 3.435 1.223m39.464 4.338a17.24 17.24 0 0 1-3.459-.336 8.31 8.31 0 0 1-2.642-.814l.937-4.794c.839.454 1.725.815 2.642 1.078.931.258 1.892.395 2.858.408a7.235 7.235 0 0 0 2.186-.264 1.534 1.534 0 0 0 .985-1.222 1.263 1.263 0 0 0 0-.312 1.218 1.218 0 0 0-.889-1.174c-.576-.264-1.465-.599-2.618-1.055a7.523 7.523 0 0 1-2.93-1.845 3.95 3.95 0 0 1-1.01-2.829v-1.486a7.02 7.02 0 0 1 2.691-4.554 10.228 10.228 0 0 1 6.15-1.558c1.03.006 2.058.094 3.074.264.819.141 1.623.358 2.402.647l-.937 4.794a11.059 11.059 0 0 0-2.402-.839 10.498 10.498 0 0 0-2.234-.264 8.468 8.468 0 0 0-2.186.24 1.418 1.418 0 0 0-1.129 1.126.986.986 0 0 0 0 .288c0 .407.24.695.72.911.481.216 1.25.503 2.403.887a7.47 7.47 0 0 1 3.699 1.965c.635.815.974 1.82.961 2.852v.863l-.144.911a7.872 7.872 0 0 1-1.346 3.212 6.29 6.29 0 0 1-2.834 2.181 12.864 12.864 0 0 1-4.804.767m10.449-.072 5.428-28.427h6.414l-2.138 11.266h10.04l2.162-11.266h6.413l-5.428 28.427h-6.414l2.162-11.241H111.74l-2.138 11.241h-6.437Zm25.124 0 10.161-18.959h5.26l2.954 18.959h-5.188l-.624-4.027h-5.189l-2.185 4.027h-5.189Zm8.768-8.005h3.819l-.841-5.561-2.978 5.561Zm18.903 8.005a8.937 8.937 0 0 1-4.468-1.054 5.858 5.858 0 0 1-2.57-3.188 10.408 10.408 0 0 1-.144-5.225 11.69 11.69 0 0 1 3.699-7.191 11.086 11.086 0 0 1 7.326-2.397c.985-.016 1.968.08 2.931.288.793.169 1.554.46 2.258.863l-.721 3.739a6.89 6.89 0 0 0-1.85-.743 10.9 10.9 0 0 0-2.402-.264 6.877 6.877 0 0 0-4.251 1.222 6.687 6.687 0 0 0-2.21 4.387 5.956 5.956 0 0 0 .168 4.362c.553.887 1.898 1.342 3.988 1.342a10.341 10.341 0 0 0 2.402-.287 9.925 9.925 0 0 0 2.402-.791l-.721 3.835a14.44 14.44 0 0 1-5.837 1.102Zm8.984 0 4.803-25.694h5.069l-2.234 12.32 6.269-5.585H185l-7.038 6.591 5.717 12.368h-5.717l-3.987-9.228-2.618 2.349-1.321 6.879h-5.092Z"/>
  <path fill="url(#a)" d="M82.988 4.23 27.142 36.395a19.627 19.627 0 0 0-7.239 7.23 19.573 19.573 0 0 0-2.609 9.884v64.236a19.547 19.547 0 0 0 2.636 9.817 19.603 19.603 0 0 0 7.212 7.177l55.846 32.19a19.734 19.734 0 0 0 19.672 0l55.87-32.19a19.602 19.602 0 0 0 7.212-7.177 19.534 19.534 0 0 0 2.636-9.817V53.509a19.566 19.566 0 0 0-2.609-9.883 19.628 19.628 0 0 0-7.239-7.23L102.66 4.23a19.63 19.63 0 0 0-19.672 0Z"/>
  <path fill="#040000" d="M82.988 4.23 27.142 36.395a19.627 19.627 0 0 0-7.239 7.23 19.573 19.573 0 0 0-2.609 9.884v64.236a19.547 19.547 0 0 0 2.636 9.817 19.603 19.603 0 0 0 7.212 7.177l55.846 32.19a19.734 19.734 0 0 0 19.672 0l55.87-32.19a19.602 19.602 0 0 0 7.212-7.177 19.534 19.534 0 0 0 2.636-9.817V53.509a19.566 19.566 0 0 0-2.609-9.883 19.628 19.628 0 0 0-7.239-7.23L102.66 4.23a19.63 19.63 0 0 0-19.672 0Z" opacity=".75" style="mix-blend-mode:multiply"/>
  <path stroke="url(#b)" stroke-miterlimit="10" stroke-width="1.64" d="M82.988 4.23 27.142 36.395a19.627 19.627 0 0 0-7.239 7.23 19.573 19.573 0 0 0-2.609 9.884v64.236a19.547 19.547 0 0 0 2.636 9.817 19.603 19.603 0 0 0 7.212 7.177l55.846 32.19a19.734 19.734 0 0 0 19.672 0l55.87-32.19a19.602 19.602 0 0 0 7.212-7.177 19.534 19.534 0 0 0 2.636-9.817V53.509a19.566 19.566 0 0 0-2.609-9.883 19.628 19.628 0 0 0-7.239-7.23L102.66 4.23a19.63 19.63 0 0 0-19.672 0Z"/>
  <g filter="url(#c)">
    <path fill="#202124" d="M92.812 163.501a9.328 9.328 0 0 1-7.902-4.314l-44.076-68.55a9.405 9.405 0 0 1 0-10.115L84.91 11.947a9.408 9.408 0 0 1 3.407-3.16 9.431 9.431 0 0 1 12.422 3.16l44.052 68.575a9.404 9.404 0 0 1 0 10.115l-44.052 68.55a9.32 9.32 0 0 1-7.927 4.314Z"/>
  </g>
  <path fill="#fff" d="M92.812 163.501a9.328 9.328 0 0 1-7.902-4.314l-44.076-68.55a9.405 9.405 0 0 1 0-10.115L84.91 11.947a9.408 9.408 0 0 1 3.407-3.16 9.431 9.431 0 0 1 12.422 3.16l44.052 68.575a9.404 9.404 0 0 1 0 10.115l-44.052 68.55a9.32 9.32 0 0 1-7.927 4.314Zm0-151.937a5.318 5.318 0 0 0-4.587 2.517L44.172 82.63a5.456 5.456 0 0 0 0 5.896l44.053 68.551a5.454 5.454 0 0 0 4.6 2.519 5.452 5.452 0 0 0 4.6-2.519l44.051-68.55a5.457 5.457 0 0 0 0-5.897L97.424 14.08a5.327 5.327 0 0 0-4.612-2.517Z" opacity=".3"/>
  <g filter="url(#d)">
    <path fill="#fff" d="M92.812 120.909a35.556 35.556 0 0 1-19.164-5.649 35.452 35.452 0 0 1-13.07-15.084l-5.333-3.116a39.238 39.238 0 0 0 14.214 20.071 39.374 39.374 0 0 0 23.39 7.696 39.374 39.374 0 0 0 23.389-7.696 39.236 39.236 0 0 0 14.213-20.07l-5.356 3.115a35.477 35.477 0 0 1-13.093 15.093 35.585 35.585 0 0 1-19.19 5.64Z"/>
  </g>
  <g filter="url(#e)">
    <path fill="#fff" d="M92.812 50.25a35.508 35.508 0 0 1 19.183 5.635 35.405 35.405 0 0 1 13.076 15.097l5.356 3.116a39.261 39.261 0 0 0-14.226-20.058 39.402 39.402 0 0 0-23.389-7.69 39.401 39.401 0 0 0-23.389 7.69 39.263 39.263 0 0 0-14.226 20.058l5.38-3.092a35.4 35.4 0 0 1 13.061-15.105 35.51 35.51 0 0 1 19.174-5.652Z"/>
  </g>
  <g filter="url(#f)">
    <path fill="#fff" d="M134.15 80.761 95.719 58.543a5.63 5.63 0 0 0-5.597 0L51.691 80.76a5.566 5.566 0 0 0-2.749 4.794 5.551 5.551 0 0 0 2.748 4.794l38.432 22.195a5.557 5.557 0 0 0 5.597 0l38.431-22.195a5.565 5.565 0 0 0 2.749-4.794 5.553 5.553 0 0 0-2.749-4.794ZM92.812 105.21c-3.89 0-7.694-1.152-10.929-3.309a19.638 19.638 0 0 1-7.245-8.81 19.592 19.592 0 0 1-1.12-11.341 19.617 19.617 0 0 1 5.384-10.052 19.71 19.71 0 0 1 21.438-4.255 19.664 19.664 0 0 1 8.829 7.23 19.597 19.597 0 0 1 3.315 10.906 19.634 19.634 0 0 1-5.768 13.874 19.722 19.722 0 0 1-13.904 5.757Z"/>
  </g>
  <defs>
    <filter id="c" width="120.029" height="168.98" x="32.798" y="1.081" color-interpolation-filters="sRGB" filterUnits="userSpaceOnUse">
      <feFlood flood-opacity="0" result="BackgroundImageFix"/>
      <feColorMatrix in="SourceAlpha" result="hardAlpha" values="0 0 0 0 0 0 0 0 0 0 0 0 0 0 0 0 0 0 127 0"/>
      <feOffset/>
      <feGaussianBlur stdDeviation="3.28"/>
      <feColorMatrix values="0 0 0 0 0.0156863 0 0 0 0 0 0 0 0 0 0 0 0 0 1 0"/>
      <feBlend in2="BackgroundImageFix" result="effect1_dropShadow_145_55170"/>
      <feBlend in="SourceGraphic" in2="effect1_dropShadow_145_55170" result="shape"/>
    </filter>
    <filter id="d" width="88.326" height="40.887" x="48.685" y="90.5" color-interpolation-filters="sRGB" filterUnits="userSpaceOnUse">
      <feFlood flood-opacity="0" result="BackgroundImageFix"/>
      <feColorMatrix in="SourceAlpha" result="hardAlpha" values="0 0 0 0 0 0 0 0 0 0 0 0 0 0 0 0 0 0 127 0"/>
      <feOffset/>
      <feGaussianBlur stdDeviation="3.28"/>
      <feColorMatrix values="0 0 0 0 0.0156863 0 0 0 0 0 0 0 0 0 0 0 0 0 1 0"/>
      <feBlend in2="BackgroundImageFix" result="effect1_dropShadow_145_55170"/>
      <feBlend in="SourceGraphic" in2="effect1_dropShadow_145_55170" result="shape"/>
    </filter>
    <filter id="e" width="88.35" height="40.868" x="48.637" y="39.79" color-interpolation-filters="sRGB" filterUnits="userSpaceOnUse">
      <feFlood flood-opacity="0" result="BackgroundImageFix"/>
      <feColorMatrix in="SourceAlpha" result="hardAlpha" values="0 0 0 0 0 0 0 0 0 0 0 0 0 0 0 0 0 0 127 0"/>
      <feOffset/>
      <feGaussianBlur stdDeviation="3.28"/>
      <feColorMatrix values="0 0 0 0 0.0156863 0 0 0 0 0 0 0 0 0 0 0 0 0 1 0"/>
      <feBlend in2="BackgroundImageFix" result="effect1_dropShadow_145_55170"/>
      <feBlend in="SourceGraphic" in2="effect1_dropShadow_145_55170" result="shape"/>
    </filter>
    <filter id="f" width="101.077" height="68.622" x="42.382" y="51.238" color-interpolation-filters="sRGB" filterUnits="userSpaceOnUse">
      <feFlood flood-opacity="0" result="BackgroundImageFix"/>
      <feColorMatrix in="SourceAlpha" result="hardAlpha" values="0 0 0 0 0 0 0 0 0 0 0 0 0 0 0 0 0 0 127 0"/>
      <feOffset/>
      <feGaussianBlur stdDeviation="3.28"/>
      <feColorMatrix values="0 0 0 0 0.0156863 0 0 0 0 0 0 0 0 0 0 0 0 0 1 0"/>
      <feBlend in2="BackgroundImageFix" result="effect1_dropShadow_145_55170"/>
      <feBlend in="SourceGraphic" in2="effect1_dropShadow_145_55170" result="shape"/>
    </filter>
    <radialGradient id="a" cx="0" cy="0" r="1" gradientTransform="matrix(79.9617 0 0 79.7917 92.812 85.58)" gradientUnits="userSpaceOnUse">
      <stop stop-color="#202124"/>
      <stop offset=".86" stop-color="#202124"/>
      <stop offset="1" stop-color="#202124"/>
    </radialGradient>
    <linearGradient id="b" x1="19.936" x2="165.557" y1="43.586" y2="127.841" gradientUnits="userSpaceOnUse">
      <stop stop-color="#E61F4C"/>
      <stop offset=".01" stop-color="#DF2251"/>
      <stop offset=".07" stop-color="#BF2E68"/>
      <stop offset=".12" stop-color="#A4387A"/>
      <stop offset=".19" stop-color="#903F88"/>
      <stop offset=".26" stop-color="#824592"/>
      <stop offset=".35" stop-color="#7A4898"/>
      <stop offset=".5" stop-color="#77499A"/>
      <stop offset=".66" stop-color="#744A9B"/>
      <stop offset=".76" stop-color="#6C4D9D"/>
      <stop offset=".84" stop-color="#5E51A1"/>
      <stop offset=".91" stop-color="#4A58A6"/>
      <stop offset=".97" stop-color="#3061AC"/>
      <stop offset="1" stop-color="#2265B0"/>
    </linearGradient>
  </defs>
</svg>
