<svg xmlns="http://www.w3.org/2000/svg" width="171" height="231" fill="none" viewBox="0 0 171 231">
  <g clip-path="url(#a)">
    <path fill="#fff" d="m16.252 203.934 1.354 9.132H11.39l4.862-9.132Zm-2.22-6.265L0 223.831h6.416l3.242-5.934h8.104l.999 5.934h5.75l-4.018-26.162h-6.461Zm12.81 26.162 3.686-19.279h4.596l-.134 2.007a19.052 19.052 0 0 1 3.22-1.412 17.887 17.887 0 0 1 3.596-.904l-.777 4.147c-.748.124-1.489.286-2.22.485-.814.221-1.613.463-2.398.728a12.03 12.03 0 0 0-1.976.86l-2.575 13.456-5.018-.088Zm41.54.287a7.71 7.71 0 0 1-3.574-.772 5.38 5.38 0 0 1-2.22-2.206 6.1 6.1 0 0 1-.755-3.066c0-.519.052-1.036.155-1.544l2.22-11.03h4.862l-2.175 10.677c-.1.464-.152.937-.156 1.411a1.774 1.774 0 0 0 .6 1.5 3.104 3.104 0 0 0 1.931.464 3.548 3.548 0 0 0 2.465-.773 4.769 4.769 0 0 0 1.177-2.602l2.042-10.699h4.973l-2.22 11.272a8.807 8.807 0 0 1-2.975 5.625 10.266 10.266 0 0 1-6.283 1.721M45.692 231h-1.488l-1.754-.154c-.577 0-1.043-.155-1.398-.221l.821-4.191a10.21 10.21 0 0 0 1.865.375c.647.097 1.3.149 1.954.154a11.32 11.32 0 0 0 4.44-.772 3.545 3.545 0 0 0 2.22-2.735l.178-1.015a9.524 9.524 0 0 1-5.262 1.456 8.21 8.21 0 0 1-3.996-.904 5.193 5.193 0 0 1-2.42-2.934 10.368 10.368 0 0 1-.156-5.316 14.537 14.537 0 0 1 3.62-7.853 8.893 8.893 0 0 1 6.66-2.669 6.282 6.282 0 0 1 2.953.573 6.67 6.67 0 0 1 2.064 1.61l.622-1.786h4.263l-3.42 17.956a11.58 11.58 0 0 1-1.82 4.411 9.067 9.067 0 0 1-3.774 3.022 15.124 15.124 0 0 1-6.172 1.103V231Zm3.374-11.073a6.254 6.254 0 0 0 2.22-.398 6.944 6.944 0 0 0 1.999-1.147l1.62-8.404a4.615 4.615 0 0 0-1.487-1.324 4.344 4.344 0 0 0-2.02-.441 4.442 4.442 0 0 0-3.708 1.699 11.605 11.605 0 0 0-1.932 4.787 5.743 5.743 0 0 0 .156 4.036c.488.75 1.532 1.125 3.175 1.125m36.478 3.993a16.034 16.034 0 0 1-3.197-.309 7.719 7.719 0 0 1-2.443-.75l.866-4.412c.776.418 1.595.751 2.442.993.861.237 1.75.363 2.642.375a6.69 6.69 0 0 0 2.02-.243 1.413 1.413 0 0 0 .911-1.125 1.15 1.15 0 0 0 0-.286 1.132 1.132 0 0 0-.822-1.081c-.532-.243-1.354-.552-2.42-.971a6.955 6.955 0 0 1-2.708-1.698 3.628 3.628 0 0 1-.933-2.603v-1.368a6.457 6.457 0 0 1 2.487-4.191 9.48 9.48 0 0 1 5.684-1.434c.952.005 1.903.086 2.842.243.757.13 1.5.329 2.22.595L94.292 210a10.197 10.197 0 0 0-2.22-.772 9.76 9.76 0 0 0-2.065-.243c-.68-.014-1.36.06-2.02.221a1.301 1.301 0 0 0-1.043 1.037.898.898 0 0 0 0 .264c0 .375.221.64.665.839.444.198 1.155.463 2.22.816a6.913 6.913 0 0 1 3.42 1.809c.586.749.9 1.675.888 2.625v.794l-.134.838a7.233 7.233 0 0 1-1.243 2.956 5.81 5.81 0 0 1-2.62 2.007 11.945 11.945 0 0 1-4.44.706m9.658-.066 5.017-26.162h5.928l-1.976 10.368h9.281l1.998-10.368h5.928l-5.018 26.162h-5.928l1.998-10.346h-9.302l-1.976 10.346h-5.95Zm23.223 0 9.391-17.449h4.863l2.731 17.449h-4.796l-.577-3.706h-4.796l-2.02 3.706h-4.796Zm8.104-7.368h3.53l-.777-5.117-2.753 5.117Zm17.473 7.368a8.28 8.28 0 0 1-4.13-.971 5.387 5.387 0 0 1-2.375-2.934 9.532 9.532 0 0 1-.134-4.808 10.74 10.74 0 0 1 3.419-6.618 10.286 10.286 0 0 1 6.772-2.206c.91-.015 1.819.074 2.709.265a7.284 7.284 0 0 1 2.087.794l-.666 3.441a6.429 6.429 0 0 0-1.71-.684 10.107 10.107 0 0 0-2.22-.242 6.374 6.374 0 0 0-3.93 1.125 6.138 6.138 0 0 0-2.042 4.036 5.458 5.458 0 0 0 .155 4.015c.511.816 1.754 1.235 3.685 1.235a9.601 9.601 0 0 0 2.221-.264 9.184 9.184 0 0 0 2.22-.728l-.666 3.529a13.388 13.388 0 0 1-5.395 1.015Zm8.303 0 4.441-23.647h4.684l-2.064 11.338 5.794-5.14H171l-6.505 6.067 5.284 11.382h-5.284l-3.686-8.493-2.42 2.162-1.221 6.331h-4.707Z"/>
    <path fill="url(#b)" d="M76.708 18.618 25.088 48.22a18.103 18.103 0 0 0-6.691 6.654 17.954 17.954 0 0 0-2.412 9.096v59.117a17.93 17.93 0 0 0 2.437 9.035 18.081 18.081 0 0 0 6.666 6.605l51.62 29.625a18.302 18.302 0 0 0 18.183 0l51.642-29.625a18.084 18.084 0 0 0 6.667-6.605 17.936 17.936 0 0 0 2.436-9.035V63.971a17.95 17.95 0 0 0-2.411-9.096 18.1 18.1 0 0 0-6.692-6.654L94.891 18.618a18.208 18.208 0 0 0-9.091-2.431c-3.194 0-6.33.839-9.092 2.43Z"/>
    <path fill="#040000" d="M76.708 18.618 25.088 48.22a18.103 18.103 0 0 0-6.691 6.654 17.954 17.954 0 0 0-2.412 9.096v59.117a17.93 17.93 0 0 0 2.437 9.035 18.081 18.081 0 0 0 6.666 6.605l51.62 29.625a18.302 18.302 0 0 0 18.183 0l51.642-29.625a18.084 18.084 0 0 0 6.667-6.605 17.936 17.936 0 0 0 2.436-9.035V63.971a17.95 17.95 0 0 0-2.411-9.096 18.1 18.1 0 0 0-6.692-6.654L94.891 18.618a18.208 18.208 0 0 0-9.091-2.431c-3.194 0-6.33.839-9.092 2.43Z" opacity=".75" style="mix-blend-mode:multiply"/>
    <path stroke="url(#c)" stroke-miterlimit="10" stroke-width="1.64" d="M76.708 18.618 25.088 48.22a18.103 18.103 0 0 0-6.691 6.654 17.954 17.954 0 0 0-2.412 9.096v59.117a17.93 17.93 0 0 0 2.437 9.035 18.081 18.081 0 0 0 6.666 6.605l51.62 29.625a18.302 18.302 0 0 0 18.183 0l51.642-29.625a18.084 18.084 0 0 0 6.667-6.605 17.936 17.936 0 0 0 2.436-9.035V63.971a17.95 17.95 0 0 0-2.411-9.096 18.1 18.1 0 0 0-6.692-6.654L94.891 18.618a18.208 18.208 0 0 0-9.091-2.431c-3.194 0-6.33.839-9.092 2.43Z"/>
    <g filter="url(#d)">
      <path fill="#202124" d="M85.789 165.199a8.657 8.657 0 0 1-4.168-1.051 8.59 8.59 0 0 1-3.137-2.92L37.744 98.14a8.629 8.629 0 0 1 0-9.31l40.74-63.11a8.68 8.68 0 0 1 3.15-2.907 8.748 8.748 0 0 1 8.332 0 8.681 8.681 0 0 1 3.15 2.908l40.718 63.11a8.628 8.628 0 0 1 0 9.309l-40.719 63.088a8.6 8.6 0 0 1-3.147 2.926 8.667 8.667 0 0 1-4.18 1.045Z"/>
    </g>
    <path fill="#fff" d="M85.789 165.199a8.657 8.657 0 0 1-4.168-1.051 8.59 8.59 0 0 1-3.137-2.92L37.744 98.14a8.629 8.629 0 0 1 0-9.31l40.74-63.11a8.68 8.68 0 0 1 3.15-2.907 8.748 8.748 0 0 1 8.332 0 8.681 8.681 0 0 1 3.15 2.908l40.718 63.11a8.628 8.628 0 0 1 0 9.309l-40.719 63.088a8.6 8.6 0 0 1-3.147 2.926 8.667 8.667 0 0 1-4.18 1.045Zm0-139.831a4.932 4.932 0 0 0-2.428.602 4.893 4.893 0 0 0-1.813 1.714L40.83 90.772a5.006 5.006 0 0 0 0 5.427l40.718 63.088a5.039 5.039 0 0 0 4.252 2.318 5.038 5.038 0 0 0 4.252-2.318l40.718-63.088a5.008 5.008 0 0 0 0-5.427L90.051 27.684a4.915 4.915 0 0 0-1.824-1.716 4.954 4.954 0 0 0-2.438-.6Z" opacity=".3"/>
    <g filter="url(#e)">
      <path fill="#fff" d="M85.789 126a32.971 32.971 0 0 1-17.714-5.199 32.669 32.669 0 0 1-12.082-13.882l-4.928-2.867a36.116 36.116 0 0 0 13.137 18.471 36.504 36.504 0 0 0 21.62 7.083 36.503 36.503 0 0 0 21.619-7.083 36.11 36.11 0 0 0 13.138-18.471l-4.951 2.867a32.68 32.68 0 0 1-12.102 13.89A32.985 32.985 0 0 1 85.789 126Z"/>
    </g>
    <g filter="url(#f)">
      <path fill="#fff" d="M85.789 60.97a32.926 32.926 0 0 1 17.731 5.187 32.62 32.62 0 0 1 12.086 13.895l4.951 2.867a36.134 36.134 0 0 0-13.15-18.46 36.522 36.522 0 0 0-21.618-7.077 36.53 36.53 0 0 0-21.62 7.077A36.137 36.137 0 0 0 51.02 82.92l4.973-2.845a32.62 32.62 0 0 1 12.073-13.902 32.925 32.925 0 0 1 17.723-5.201Z"/>
    </g>
    <g filter="url(#g)">
      <path fill="#fff" d="M123.998 89.052 88.475 68.603a5.22 5.22 0 0 0-5.173 0L47.779 89.052a5.134 5.134 0 0 0-1.86 1.87 5.092 5.092 0 0 0 0 5.083 5.134 5.134 0 0 0 1.86 1.87l35.523 20.427a5.158 5.158 0 0 0 5.173 0l35.523-20.427a5.135 5.135 0 0 0 1.861-1.87 5.098 5.098 0 0 0 0-5.083 5.135 5.135 0 0 0-1.861-1.87Zm-38.21 22.5a18.27 18.27 0 0 1-10.102-3.045 18.092 18.092 0 0 1-6.697-8.108 17.958 17.958 0 0 1-1.035-10.438 18.03 18.03 0 0 1 4.977-9.25 18.22 18.22 0 0 1 9.31-4.945 18.293 18.293 0 0 1 10.506 1.028 18.161 18.161 0 0 1 8.161 6.654 17.983 17.983 0 0 1 3.064 10.037 18.03 18.03 0 0 1-5.332 12.769 18.27 18.27 0 0 1-12.851 5.298Z"/>
    </g>
  </g>
  <defs>
    <filter id="d" width="111.939" height="156.561" x="29.819" y="15.198" color-interpolation-filters="sRGB" filterUnits="userSpaceOnUse">
      <feFlood flood-opacity="0" result="BackgroundImageFix"/>
      <feColorMatrix in="SourceAlpha" result="hardAlpha" values="0 0 0 0 0 0 0 0 0 0 0 0 0 0 0 0 0 0 127 0"/>
      <feOffset/>
      <feGaussianBlur stdDeviation="3.28"/>
      <feColorMatrix values="0 0 0 0 0.0156863 0 0 0 0 0 0 0 0 0 0 0 0 0 1 0"/>
      <feBlend in2="BackgroundImageFix" result="effect1_dropShadow_252_490"/>
      <feBlend in="SourceGraphic" in2="effect1_dropShadow_252_490" result="shape"/>
    </filter>
    <filter id="e" width="82.635" height="38.675" x="44.505" y="97.492" color-interpolation-filters="sRGB" filterUnits="userSpaceOnUse">
      <feFlood flood-opacity="0" result="BackgroundImageFix"/>
      <feColorMatrix in="SourceAlpha" result="hardAlpha" values="0 0 0 0 0 0 0 0 0 0 0 0 0 0 0 0 0 0 127 0"/>
      <feOffset/>
      <feGaussianBlur stdDeviation="3.28"/>
      <feColorMatrix values="0 0 0 0 0.0156863 0 0 0 0 0 0 0 0 0 0 0 0 0 1 0"/>
      <feBlend in2="BackgroundImageFix" result="effect1_dropShadow_252_490"/>
      <feBlend in="SourceGraphic" in2="effect1_dropShadow_252_490" result="shape"/>
    </filter>
    <filter id="f" width="82.657" height="38.657" x="44.46" y="50.822" color-interpolation-filters="sRGB" filterUnits="userSpaceOnUse">
      <feFlood flood-opacity="0" result="BackgroundImageFix"/>
      <feColorMatrix in="SourceAlpha" result="hardAlpha" values="0 0 0 0 0 0 0 0 0 0 0 0 0 0 0 0 0 0 127 0"/>
      <feOffset/>
      <feGaussianBlur stdDeviation="3.28"/>
      <feColorMatrix values="0 0 0 0 0.0156863 0 0 0 0 0 0 0 0 0 0 0 0 0 1 0"/>
      <feBlend in2="BackgroundImageFix" result="effect1_dropShadow_252_490"/>
      <feBlend in="SourceGraphic" in2="effect1_dropShadow_252_490" result="shape"/>
    </filter>
    <filter id="g" width="94.421" height="64.199" x="38.678" y="61.358" color-interpolation-filters="sRGB" filterUnits="userSpaceOnUse">
      <feFlood flood-opacity="0" result="BackgroundImageFix"/>
      <feColorMatrix in="SourceAlpha" result="hardAlpha" values="0 0 0 0 0 0 0 0 0 0 0 0 0 0 0 0 0 0 127 0"/>
      <feOffset/>
      <feGaussianBlur stdDeviation="3.28"/>
      <feColorMatrix values="0 0 0 0 0.0156863 0 0 0 0 0 0 0 0 0 0 0 0 0 1 0"/>
      <feBlend in2="BackgroundImageFix" result="effect1_dropShadow_252_490"/>
      <feBlend in="SourceGraphic" in2="effect1_dropShadow_252_490" result="shape"/>
    </filter>
    <radialGradient id="b" cx="0" cy="0" r="1" gradientTransform="matrix(73.9105 0 0 73.4338 85.789 93.485)" gradientUnits="userSpaceOnUse">
      <stop stop-color="#202124"/>
      <stop offset=".86" stop-color="#202124"/>
      <stop offset="1" stop-color="#202124"/>
    </radialGradient>
    <linearGradient id="c" x1="18.428" x2="152.734" y1="54.838" y2="132.885" gradientUnits="userSpaceOnUse">
      <stop stop-color="#E61F4C"/>
      <stop offset=".01" stop-color="#DF2251"/>
      <stop offset=".07" stop-color="#BF2E68"/>
      <stop offset=".12" stop-color="#A4387A"/>
      <stop offset=".19" stop-color="#903F88"/>
      <stop offset=".26" stop-color="#824592"/>
      <stop offset=".35" stop-color="#7A4898"/>
      <stop offset=".5" stop-color="#77499A"/>
      <stop offset=".66" stop-color="#744A9B"/>
      <stop offset=".76" stop-color="#6C4D9D"/>
      <stop offset=".84" stop-color="#5E51A1"/>
      <stop offset=".91" stop-color="#4A58A6"/>
      <stop offset=".97" stop-color="#3061AC"/>
      <stop offset="1" stop-color="#2265B0"/>
    </linearGradient>
    <clipPath id="a">
      <path fill="#fff" d="M0 0h171v231H0z"/>
    </clipPath>
  </defs>
</svg>
