<svg xmlns="http://www.w3.org/2000/svg" width="240" height="167" fill="none" viewBox="0 0 240 167">
  <path fill="#fff" d="M42.494 81.057H26.481V44.745h-9.858v36.312H.61V.027h16.013v35.008h9.858V.027h16.013v81.03Zm34.618 0H61.098v-69.43l-11.57 8.094V9.163L62.578.027h14.533v81.03Zm32.396 0H91.165V.027h19.358c7.253 0 12.901 1.968 16.754 5.839 3.852 3.87 5.771 9.267 5.771 16.123v35.92c0 7.82-2.07 13.607-6.169 17.426-4.099 3.82-9.926 5.722-17.371 5.722Zm-2.33-10.427h3.112c2.564 0 4.319-.521 5.223-1.564.905-1.043 1.536-3.18 1.536-5.93v-45.37a9.381 9.381 0 0 0-1.494-5.761c-.85-1.069-2.619-1.551-5.265-1.551h-3.112V70.63Zm79.175 10.427H169.38l-10.776-32.806h-3.071v32.806H139.52V.027h20.825c18.714 0 22.608 13.412 22.608 24.66a29.106 29.106 0 0 1-2.399 12.394c-1.526 3.19-4.005 5.883-7.13 7.742l12.929 36.234Zm-30.82-42.503h4.373a10.04 10.04 0 0 0 3.935-.612 4.333 4.333 0 0 0 1.878-1.512c.5-.916.825-1.909.96-2.933.178-1.186.315-6.647.315-9.032s-.137-7.82-.315-9.032a8.012 8.012 0 0 0-1.042-2.998c-1.001-1.303-3.126-2.046-6.306-2.046h-3.798v28.165ZM240 81.057h-16.164l-3.866-18.612h-11.325l-3.756 18.612h-16.151l19.03-81.03h13.202L240 81.057Zm-29.202-28.974h7.074l-3.551-17.308-3.523 17.308Zm-33.288 35.83h-.014c-2.62 0-4.743 2.019-4.743 4.51v.012c0 2.491 2.123 4.51 4.743 4.51h.014c2.62 0 4.744-2.019 4.744-4.51v-.013c0-2.49-2.124-4.51-4.744-4.51ZM.61 132.54a17.216 17.216 0 0 0 1.577 6.321 15.884 15.884 0 0 0 3.92 5.214c3.282 2.867 7.61 4.406 12.066 4.288a18.63 18.63 0 0 0 7.074-1.304 16.728 16.728 0 0 0 5.525-3.662 17.6 17.6 0 0 0 3.66-5.357 16.312 16.312 0 0 0 1.372-6.517 17.647 17.647 0 0 0-2.51-9.201c-1.63-2.738-4.688-4.953-9.103-6.517l-7.403-2.855c-2.633-.951-4.264-2.046-4.977-3.349a7.655 7.655 0 0 1-.973-3.676 7.121 7.121 0 0 1 1.837-4.809 6.642 6.642 0 0 1 2.422-1.68 6.957 6.957 0 0 1 2.952-.497 7.904 7.904 0 0 1 5.06 1.76c1.326 1.101 2.155 2.646 2.316 4.314h9.72a16.237 16.237 0 0 0-1.247-5.435 16.44 16.44 0 0 0-3.469-5.214 15.369 15.369 0 0 0-5.223-3.388 18.264 18.264 0 0 0-6.663-1.2 19.38 19.38 0 0 0-6.746 1.147 15.83 15.83 0 0 0-5.401 3.337 16.091 16.091 0 0 0-3.84 5.213 15.624 15.624 0 0 0-1.37 6.517c-.103 3.407 1.008 6.746 3.153 9.476 2.295 2.724 5.35 4.779 8.816 5.93l6.018 2.099a11.67 11.67 0 0 1 5.484 3.388 7.745 7.745 0 0 1 1.563 4.81 6.526 6.526 0 0 1-.596 3.046 6.858 6.858 0 0 1-1.954 2.48 8.74 8.74 0 0 1-5.484 1.929 6.767 6.767 0 0 1-3.31-.552 6.398 6.398 0 0 1-2.571-2.055 12.073 12.073 0 0 1-1.769-4.079l-9.926.078Zm68.81-2.867H50.61v5.448a4.109 4.109 0 0 0 .26 1.761 4.29 4.29 0 0 0 .988 1.51c.459.396.995.703 1.579.902a4.932 4.932 0 0 0 1.821.258 3.92 3.92 0 0 0 2.021-.272 3.705 3.705 0 0 0 1.571-1.24 7.813 7.813 0 0 0 1.07-3.011h9.5a12.338 12.338 0 0 1-.873 5.159 12.858 12.858 0 0 1-2.952 4.408 13.246 13.246 0 0 1-4.47 2.92 15.207 15.207 0 0 1-5.867 1.068 15.069 15.069 0 0 1-7.582-1.772 12.389 12.389 0 0 1-4.17-3.702 11.645 11.645 0 0 1-2.026-5.07 31.794 31.794 0 0 1-.37-5.044v-14.128a31.839 31.839 0 0 1 .37-5.057 11.653 11.653 0 0 1 2.031-5.062 12.402 12.402 0 0 1 4.165-3.697 15.07 15.07 0 0 1 7.582-1.773 15.907 15.907 0 0 1 5.923 1.056c1.7.671 3.236 1.669 4.51 2.933 2.544 2.781 3.877 6.379 3.73 10.062v12.343Zm-18.81-7.13h9.31v-5.096a5.328 5.328 0 0 0-1.262-3.91 5.12 5.12 0 0 0-3.427-1.301 5.12 5.12 0 0 0-3.428 1.301 5.328 5.328 0 0 0-1.247 3.91l.054 5.096Zm33.713 12.578a4.11 4.11 0 0 0 .26 1.761 4.27 4.27 0 0 0 .988 1.51c.459.396.995.703 1.579.902a4.932 4.932 0 0 0 1.821.258 3.92 3.92 0 0 0 2.021-.272 3.703 3.703 0 0 0 1.571-1.24 7.812 7.812 0 0 0 1.07-3.011h9.5a12.441 12.441 0 0 1-.877 5.154 12.969 12.969 0 0 1-2.934 4.413 13.447 13.447 0 0 1-4.483 2.92 16.914 16.914 0 0 1-6.806 1.046 16.8 16.8 0 0 1-6.644-1.75 12.39 12.39 0 0 1-4.17-3.702 11.644 11.644 0 0 1-2.026-5.07 31.794 31.794 0 0 1-.37-5.044v-14.128a31.839 31.839 0 0 1 .37-5.057 11.654 11.654 0 0 1 2.03-5.062 12.403 12.403 0 0 1 4.166-3.697 15.07 15.07 0 0 1 7.582-1.773 15.907 15.907 0 0 1 5.923 1.056c1.7.671 3.236 1.669 4.51 2.933 2.588 2.901 3.92 6.627 3.729 10.427h-9.5a5.54 5.54 0 0 0-1.262-4.041 5.12 5.12 0 0 0-3.427-1.301 5.12 5.12 0 0 0-3.428 1.301 5.33 5.33 0 0 0-1.248 3.91l.055 17.557Zm44.174-.339v-31.098h9.857v33.079a10.952 10.952 0 0 1-.9 4.514 11.444 11.444 0 0 1-2.692 3.815 12.715 12.715 0 0 1-3.962 2.606 26.165 26.165 0 0 1-13.888 0c-2.956-1.252-5.317-3.506-6.622-6.321a10.991 10.991 0 0 1-.987-4.614v-33.079h9.871v31.098c0 1.172.489 2.296 1.361 3.124a4.772 4.772 0 0 0 3.286 1.294 4.836 4.836 0 0 0 1.787-.329 4.658 4.658 0 0 0 1.518-.956c.434-.41.779-.898 1.014-1.436a4.239 4.239 0 0 0 .357-1.697Zm16.657 13.829v-44.927h9.501v4.783a28.842 28.842 0 0 1 5.676-3.91 15.214 15.214 0 0 1 6.855-1.408v9.554a8.168 8.168 0 0 0-2.893-.534 11.757 11.757 0 0 0-3.208.495 8.502 8.502 0 0 0-3.126 1.642 8.571 8.571 0 0 0-2.426 3.024 10.222 10.222 0 0 0-.919 4.601v26.68h-9.46Zm37.1-44.927h-9.501v44.887h9.501v-44.887Zm9.98-4.51v-2.998h9.488v7.507h5.909l1.727 7.13h-7.636v24.881a7.375 7.375 0 0 0 .329 2.476c.192.537.568.996 1.069 1.304.555.311 1.18.494 1.824.534.712 0 1.59.091 2.646.091v8.511h-3.908a13.347 13.347 0 0 1-5.484-.977 9.728 9.728 0 0 1-3.496-2.477 9.321 9.321 0 0 1-1.905-3.414 11.842 11.842 0 0 1-.604-3.676v-27.253h-4.716v-7.13a4.884 4.884 0 0 0 3.359-1.32 4.409 4.409 0 0 0 1.398-3.19Z"/>
  <path fill="#fff" d="M207.027 103.684h10.064l6.526 27.983h.178l6.43-27.983H240l-13.587 52.747a15.4 15.4 0 0 1-2.097 4.953 12.81 12.81 0 0 1-3.126 3.193 11.215 11.215 0 0 1-3.77 1.72 17.514 17.514 0 0 1-4.113.483h-2.619v-8.498h2.153a7.429 7.429 0 0 0 2.412-.352 3.873 3.873 0 0 0 1.865-1.59 15.534 15.534 0 0 0 1.371-3.507c.439-1.498.932-3.584 1.494-6.243l-12.956-42.906ZM41.096 96.906h-1.262l2.537-8.993h1.261l-2.536 8.993Zm3.153 0h-.63l2.536-8.993h.63l-2.536 8.993Zm-1.892 0h-.617l2.536-8.993h.631l-2.55 8.993Zm6.937 0h-2.523l2.537-8.993h2.522l-2.536 8.993Zm1.262 0h-.631l2.536-8.993h.63l-2.535 8.993Zm2.522 0h-1.892l2.536-8.993h1.892l-2.536 8.993Zm1.892 0h-1.26l2.536-8.993h1.261l-2.536 8.993Zm6.307 0h-.631l2.536-8.993h.631l-2.536 8.993Zm-2.523 0h-.562l2.536-8.993h.63l-2.604 8.993Zm-1.261 0h-.672l2.536-8.993h.63l-2.494 8.993Zm6.937 0h-1.892l2.536-8.993h1.892l-2.536 8.993Zm2.523 0H65.69l2.537-8.993h1.26l-2.535 8.993Zm1.261 0h-.63l2.536-8.993h.63l-2.536 8.993Zm1.892 0h-1.261l2.536-8.993h1.261l-2.536 8.993Zm2.523 0h-.631l2.536-8.993h.631l-2.536 8.993Zm3.153 0H74.52l2.537-8.993h1.261l-2.536 8.993Zm2.522 0h-.63l2.536-8.993h.63l-2.536 8.993Zm2.523 0h-1.892l2.536-8.993h1.892l-2.536 8.993Zm2.523 0h-.63l2.535-8.993h.631l-2.536 8.993Zm-1.262 0h-.59l2.537-8.993h.63l-2.577 8.993Zm14.492 0h-1.261l2.536-8.993h1.261l-2.536 8.993Zm-2.523 0h-1.261l2.536-8.993h1.248l-2.523 8.993Zm-2.522 0h-1.262l2.537-8.993h1.26l-2.535 8.993Zm-1.892 0h-1.29l2.537-8.993h1.261l-2.508 8.993Zm-3.154 0h-1.261l2.536-8.993h1.262l-2.537 8.993Zm12.627 0h-1.892l2.536-8.993h1.892l-2.536 8.993Zm3.784 0h-.63l2.536-8.993h.631l-2.537 8.993Zm-2.522 0h-.631l2.536-8.993h.631l-2.536 8.993Zm4.414 0h-1.261l2.536-8.993h1.262l-2.537 8.993Zm8.24 0h-.631l2.536-8.993h.631l-2.536 8.993Zm-3.154 0h-.63l2.536-8.993h.631l-2.537 8.993Zm-3.153 0h-.631l2.537-8.993h.63l-2.536 8.993Zm8.158 0h-1.262l2.537-8.993h1.247l-2.522 8.993Zm1.892 0h-.631l2.523-8.993h.644l-2.536 8.993Zm3.783 0h-2.522l2.536-8.993h2.509l-2.523 8.993Zm5.046 0h-.631l2.523-8.993h.617l-2.509 8.993Zm-1.892 0h-.631l2.523-8.993h.63l-2.522 8.993Zm-1.262 0h-.63l2.522-8.993h.631l-2.523 8.993Zm6.938 0h-2.523l2.537-8.993h2.509l-2.523 8.993Zm1.261 0h-.631l2.523-8.993h.631l-2.523 8.993Zm3.784 0h-1.261l2.522-8.993h1.262l-2.523 8.993Zm3.153 0h-.63l2.522-8.993h.631l-2.523 8.993Zm-1.891 0h-.631l2.522-8.993h.631l-2.522 8.993Zm5.675 0h-2.522l2.522-8.993h2.523l-2.523 8.993Zm1.248 0h-.617l2.522-8.993h.631l-2.536 8.993Zm4.415 0h-1.262l2.537-8.993h1.261l-2.536 8.993Zm-1.892 0h-1.262l2.537-8.993h1.261l-2.536 8.993Zm5.045 0h-2.523l2.537-8.993h2.522l-2.536 8.993Zm1.892 0h-1.261l2.536-8.993h1.261l-2.536 8.993Zm3.153 0h-.631l2.537-8.993h.63l-2.536 8.993Zm-1.261 0h-.631l2.536-8.993h.631l-2.536 8.993Zm5.045 0h-1.261l2.536-8.993h1.262l-2.537 8.993Zm3.784 0h-1.892l2.536-8.993h1.892l-2.536 8.993Zm1.261 0h-.63l2.536-8.993h.631l-2.537 8.993Zm1.892 0h-1.261l2.536-8.993h1.262l-2.537 8.993Z"/>
</svg>
