<?xml version="1.0" encoding="UTF-8"?>
<svg xmlns="http://www.w3.org/2000/svg"
  xmlns:xlink="http://www.w3.org/1999/xlink" viewBox="0 0 96.48 156.45">
  <defs>
    <style>.cls-1{mask:url(#mask);}.cls-2{fill:#fff;}.cls-3{fill:#212224;}.cls-4{fill:url(#_命名漸層_3);}.cls-5{isolation:isolate;}.cls-6{mix-blend-mode:multiply;opacity:.5;}</style>
    <radialGradient id="_命名漸層_3" cx="48.2" cy="2.24" fx="48.2" fy="2.24" r="105.22" gradientTransform="matrix(1, 0, 0, 1, 0, 0)" gradientUnits="userSpaceOnUse">
      <stop offset="0" stop-color="#2265b0"/>
      <stop offset=".14" stop-color="#2162aa"/>
      <stop offset=".32" stop-color="#215b9c"/>
      <stop offset=".51" stop-color="#214f83"/>
      <stop offset=".71" stop-color="#213f61"/>
      <stop offset=".92" stop-color="#212a35"/>
      <stop offset="1" stop-color="#212224"/>
    </radialGradient>
    <filter id="luminosity-invert" color-interpolation-filters="sRGB" filterUnits="userSpaceOnUse">
      <feColorMatrix values="-1 0 0 0 1 0 -1 0 0 1 0 0 -1 0 1 0 0 0 1 0"/>
    </filter>
    <mask id="mask" x="-.18" y="-.18" width="96.96" height="109.68" maskUnits="userSpaceOnUse"/>
  </defs>
  <g class="cls-5">
    <g id="_層_1">
      <g>
        <path class="cls-4" d="M45.69,2.59L29.37,12.01c-2.4,1.39-3.22,4.46-1.84,6.86l16.23,28.12c.44,.76,.67,1.63,.67,2.51v55.09c0,.9,.48,1.72,1.25,2.17h0c1.55,.9,3.47,.9,5.02,0h0c.78-.45,1.25-1.28,1.25-2.17V49.5c0-.88,.23-1.75,.67-2.51l16.23-28.12c1.39-2.4,.56-5.47-1.84-6.86L50.71,2.59c-1.55-.9-3.47-.9-5.02,0Zm-9.76,15.78h0c-.35-.6-.14-1.37,.46-1.71l8.05-4.65v4.08c0,4.66-6.17,6.32-8.51,2.28Zm16.03-2.28v-4.08l8.05,4.65c.6,.35,.81,1.11,.46,1.71h0c-2.33,4.04-8.51,2.38-8.51-2.28Zm-32.24,1.49c1.2-.69,2.73-.28,3.43,.92l10.63,18.42,6.86,11.87c.44,.76,.67,1.63,.67,2.51v50.76c0,.97-1.05,1.57-1.88,1.09l-4.39-2.54c-.78-.45-1.25-1.28-1.25-2.17V52.64c0-.44-.12-.87-.34-1.25L15.38,20.09l4.35-2.51Zm1.41,.91c-.69,0-1.25,.56-1.25,1.25s.56,1.25,1.25,1.25,1.25-.56,1.25-1.25-.56-1.25-1.25-1.25ZM1.84,54.93V29.35c0-.9,.48-1.72,1.25-2.17l6.27-3.62v30.03c0,.44,.12,.87,.34,1.25l9.98,17.28c.22,.38,.34,.81,.34,1.25v16.38c0,.97-1.05,1.57-1.88,1.09l-5.02-2.9c-.39-.22-.63-.64-.63-1.09v-11.47c0-.44-.12-.87-.34-1.25L2.52,57.44c-.44-.76-.67-1.63-.67-2.51ZM3.93,28.09c-.69,0-1.25,.56-1.25,1.25s.56,1.25,1.25,1.25,1.25-.56,1.25-1.25-.56-1.25-1.25-1.25Zm8.33,24.05V21.89l6.86,11.87c.44,.76,.67,1.63,.67,2.51v14.52c0,.44,.12,.87,.34,1.25l9.98,17.28c.22,.38,.34,.81,.34,1.25v23.02c0,1.93-2.09,3.14-3.76,2.17l-2.51-1.45c-.78-.45-1.25-1.28-1.25-2.17v-19.55c0-.44-.12-.87-.34-1.25l-9.64-16.7c-.44-.76-.67-1.63-.67-2.51Zm15.85,40.47c-.69,0-1.25,.56-1.25,1.25s.56,1.25,1.25,1.25,1.25-.56,1.25-1.25-.56-1.25-1.25-1.25Zm-20.63-7.91l-4.39-2.54c-.78-.45-1.25-1.28-1.25-2.17v-17.47l7.19,12.46c.22,.38,.34,.81,.34,1.25v7.38c0,.97-1.05,1.57-1.88,1.09Zm-3.55-5.68c-.69,0-1.25,.56-1.25,1.25s.56,1.25,1.25,1.25,1.25-.56,1.25-1.25-.56-1.25-1.25-1.25ZM81.03,20.09l-18.07,31.3c-.22,.38-.34,.81-.34,1.25v45.79c0,.9-.48,1.72-1.25,2.17l-4.39,2.54c-.84,.48-1.88-.12-1.88-1.09V51.3c0-.88,.23-1.75,.67-2.51l6.86-11.87,10.63-18.42c.69-1.2,2.23-1.61,3.43-.92l4.35,2.51Zm-7.01-.35c0,.69,.56,1.25,1.25,1.25s1.25-.56,1.25-1.25c0-.69-.56-1.25-1.25-1.25s-1.25,.56-1.25,1.25Zm19.88,37.7l-9.64,16.7c-.22,.38-.34,.81-.34,1.25v11.47c0,.45-.24,.86-.63,1.09l-5.02,2.9c-.84,.48-1.88-.12-1.88-1.09v-16.38c0-.44,.12-.87,.34-1.25l9.98-17.28c.22-.38,.34-.81,.34-1.25V23.56l6.27,3.62c.78,.45,1.25,1.28,1.25,2.17v25.58c0,.88-.23,1.75-.67,2.51Zm-2.67-28.09c0,.69,.56,1.25,1.25,1.25s1.25-.56,1.25-1.25-.56-1.25-1.25-1.25-1.25,.56-1.25,1.25Zm-7.75,25.3l-9.64,16.7c-.22,.38-.34,.81-.34,1.25v19.55c0,.9-.48,1.72-1.25,2.17l-2.51,1.45c-1.67,.97-3.76-.24-3.76-2.17v-23.02c0-.44,.12-.87,.34-1.25l9.98-17.28c.22-.38,.34-.81,.34-1.25v-14.52c0-.88,.23-1.75,.67-2.51l6.86-11.87v30.25c0,.88-.23,1.75-.67,2.51Zm-16.43,39.21c0,.69,.56,1.25,1.25,1.25s1.25-.56,1.25-1.25-.56-1.25-1.25-1.25-1.25,.56-1.25,1.25Zm20-10.25v-7.38c0-.44,.12-.87,.34-1.25l7.19-12.46v17.47c0,.9-.48,1.72-1.25,2.17l-4.39,2.54c-.84,.48-1.88-.12-1.88-1.09Zm4.18-3.34c0,.69,.56,1.25,1.25,1.25s1.25-.56,1.25-1.25c0-.69-.56-1.25-1.25-1.25s-1.25,.56-1.25,1.25Z"/>
        <g class="cls-1">
          <g class="cls-6">
            <path class="cls-3" d="M45.69,2.59L29.37,12.01c-2.4,1.39-3.22,4.46-1.84,6.86l16.23,28.12c.44,.76,.67,1.63,.67,2.51v55.09c0,.9,.48,1.72,1.25,2.17h0c1.55,.9,3.47,.9,5.02,0h0c.78-.45,1.25-1.28,1.25-2.17V49.5c0-.88,.23-1.75,.67-2.51l16.23-28.12c1.39-2.4,.56-5.47-1.84-6.86L50.71,2.59c-1.55-.9-3.47-.9-5.02,0Zm-9.76,15.78h0c-.35-.6-.14-1.37,.46-1.71l8.05-4.65v4.08c0,4.66-6.17,6.32-8.51,2.28Zm16.03-2.28v-4.08l8.05,4.65c.6,.35,.81,1.11,.46,1.71h0c-2.33,4.04-8.51,2.38-8.51-2.28Zm-32.24,1.49c1.2-.69,2.73-.28,3.43,.92l10.63,18.42,6.86,11.87c.44,.76,.67,1.63,.67,2.51v50.76c0,.97-1.05,1.57-1.88,1.09l-4.39-2.54c-.78-.45-1.25-1.28-1.25-2.17V52.64c0-.44-.12-.87-.34-1.25L15.38,20.09l4.35-2.51Zm1.41,.91c-.69,0-1.25,.56-1.25,1.25s.56,1.25,1.25,1.25,1.25-.56,1.25-1.25-.56-1.25-1.25-1.25ZM1.84,54.93V29.35c0-.9,.48-1.72,1.25-2.17l6.27-3.62v30.03c0,.44,.12,.87,.34,1.25l9.98,17.28c.22,.38,.34,.81,.34,1.25v16.38c0,.97-1.05,1.57-1.88,1.09l-5.02-2.9c-.39-.22-.63-.64-.63-1.09v-11.47c0-.44-.12-.87-.34-1.25L2.52,57.44c-.44-.76-.67-1.63-.67-2.51ZM3.93,28.09c-.69,0-1.25,.56-1.25,1.25s.56,1.25,1.25,1.25,1.25-.56,1.25-1.25-.56-1.25-1.25-1.25Zm8.33,24.05V21.89l6.86,11.87c.44,.76,.67,1.63,.67,2.51v14.52c0,.44,.12,.87,.34,1.25l9.98,17.28c.22,.38,.34,.81,.34,1.25v23.02c0,1.93-2.09,3.14-3.76,2.17l-2.51-1.45c-.78-.45-1.25-1.28-1.25-2.17v-19.55c0-.44-.12-.87-.34-1.25l-9.64-16.7c-.44-.76-.67-1.63-.67-2.51Zm15.85,40.47c-.69,0-1.25,.56-1.25,1.25s.56,1.25,1.25,1.25,1.25-.56,1.25-1.25-.56-1.25-1.25-1.25Zm-20.63-7.91l-4.39-2.54c-.78-.45-1.25-1.28-1.25-2.17v-17.47l7.19,12.46c.22,.38,.34,.81,.34,1.25v7.38c0,.97-1.05,1.57-1.88,1.09Zm-3.55-5.68c-.69,0-1.25,.56-1.25,1.25s.56,1.25,1.25,1.25,1.25-.56,1.25-1.25-.56-1.25-1.25-1.25ZM81.03,20.09l-18.07,31.3c-.22,.38-.34,.81-.34,1.25v45.79c0,.9-.48,1.72-1.25,2.17l-4.39,2.54c-.84,.48-1.88-.12-1.88-1.09V51.3c0-.88,.23-1.75,.67-2.51l6.86-11.87,10.63-18.42c.69-1.2,2.23-1.61,3.43-.92l4.35,2.51Zm-7.01-.35c0,.69,.56,1.25,1.25,1.25s1.25-.56,1.25-1.25c0-.69-.56-1.25-1.25-1.25s-1.25,.56-1.25,1.25Zm19.88,37.7l-9.64,16.7c-.22,.38-.34,.81-.34,1.25v11.47c0,.45-.24,.86-.63,1.09l-5.02,2.9c-.84,.48-1.88-.12-1.88-1.09v-16.38c0-.44,.12-.87,.34-1.25l9.98-17.28c.22-.38,.34-.81,.34-1.25V23.56l6.27,3.62c.78,.45,1.25,1.28,1.25,2.17v25.58c0,.88-.23,1.75-.67,2.51Zm-2.67-28.09c0,.69,.56,1.25,1.25,1.25s1.25-.56,1.25-1.25-.56-1.25-1.25-1.25-1.25,.56-1.25,1.25Zm-7.75,25.3l-9.64,16.7c-.22,.38-.34,.81-.34,1.25v19.55c0,.9-.48,1.72-1.25,2.17l-2.51,1.45c-1.67,.97-3.76-.24-3.76-2.17v-23.02c0-.44,.12-.87,.34-1.25l9.98-17.28c.22-.38,.34-.81,.34-1.25v-14.52c0-.88,.23-1.75,.67-2.51l6.86-11.87v30.25c0,.88-.23,1.75-.67,2.51Zm-16.43,39.21c0,.69,.56,1.25,1.25,1.25s1.25-.56,1.25-1.25-.56-1.25-1.25-1.25-1.25,.56-1.25,1.25Zm20-10.25v-7.38c0-.44,.12-.87,.34-1.25l7.19-12.46v17.47c0,.9-.48,1.72-1.25,2.17l-4.39,2.54c-.84,.48-1.88-.12-1.88-1.09Zm4.18-3.34c0,.69,.56,1.25,1.25,1.25s1.25-.56,1.25-1.25c0-.69-.56-1.25-1.25-1.25s-1.25,.56-1.25,1.25Z"/>
          </g>
        </g>
      </g>
      <g>
        <polygon class="cls-2" points="21.03 156.45 15.28 156.45 15.28 142.73 11.74 142.73 11.74 156.45 5.98 156.45 5.98 125.83 11.74 125.83 11.74 139.06 15.28 139.06 15.28 125.83 21.03 125.83 21.03 156.45"/>
        <polygon class="cls-2" points="33.47 156.45 27.72 156.45 27.72 130.21 23.56 133.27 23.56 129.28 28.25 125.83 33.47 125.83 33.47 156.45"/>
        <path class="cls-2" d="M45.11,156.45h-6.59v-30.62h6.95c2.61,0,4.63,.74,6.02,2.21,1.38,1.45,2.07,3.5,2.07,6.09v13.58c0,2.93-.75,5.14-2.22,6.58-1.47,1.44-3.57,2.16-6.25,2.16Zm-.83-3.91h1.12c.92,0,1.55-.2,1.88-.59,.36-.43,.55-1.2,.55-2.24v-17.17c0-.96-.18-1.69-.54-2.18-.3-.41-.94-.61-1.89-.61h-1.12v22.8Z"/>
        <path class="cls-2" d="M72.72,156.45h-6.1l-3.87-12.4h-1.11v12.4h-5.75v-30.62h7.48c6.72,0,8.14,5.07,8.14,9.32,0,1.82-.29,3.39-.86,4.69-.52,1.17-1.38,2.15-2.56,2.92l4.64,13.7Zm-11.08-16.07h1.57c.61,0,1.09-.08,1.42-.23,.29-.14,.51-.32,.68-.57,.16-.29,.28-.66,.34-1.11,.07-.45,.11-2.51,.11-3.41s-.05-2.96-.11-3.41c-.06-.44-.19-.82-.37-1.13-.36-.51-1.12-.78-2.26-.78h-1.36v10.64Z"/>
        <path class="cls-2" d="M92,156.45h-5.81l-1.38-7.04h-4.07l-1.36,7.04h-5.81l6.84-30.62h4.74l6.84,30.62Zm-10.5-10.95h2.55l-1.28-6.54-1.26,6.54Z"/>
      </g>
    </g>
  </g>
</svg>