<svg xmlns="http://www.w3.org/2000/svg" width="347" height="66" fill="none" viewBox="0 0 347 66">
  <path fill="#fff" d="M.791.64v50.964h21.365l.895-8.57H10.656V.641H.791Zm35.012 33.366v5.875c0 2.543.614 4.45 2.837 4.45 2.223 0 2.811-2.009 2.811-4.577v-.916h9.558v.56c0 5.391-1.661 12.842-12.343 12.842-10.683 0-12.625-5.874-12.625-14.14V24.496c0-6.612 3.067-13.733 12.778-13.733 8.484 0 12.42 5.087 12.42 13.682v9.562H35.803Zm5.827-6.968v-3.942c0-3.102-.69-4.526-2.862-4.526s-2.914 1.348-2.914 4.526v3.942h5.776Zm22.668-15.157v30.06a3.23 3.23 0 0 0 1.024 1.952c.56.51 1.284.81 2.043.845a3.102 3.102 0 0 0 2.158-.765 3.072 3.072 0 0 0 1.037-2.032V11.88h9.762v29.45c0 8.417-5.75 10.757-13.06 10.757-7.308 0-12.598-3.103-12.598-10.936v-29.27h9.634Zm19.73 0h9.046v16.76h.23c.844-3.281 2.556-11.165 3.732-16.76h10.222l-5.801 15.437 5.878 24.286H97.112l-2.274-15.512-1.866 4.653v10.86h-8.944V11.88Zm51.521 12.105v15.106c0 8.876-4.779 13.148-12.778 13.148-7.999 0-12.625-4.349-12.625-13.148V23.605c0-8.977 5.469-12.716 12.778-12.716s12.778 4.12 12.778 13.224m-15.64-.839V39.78c0 2.543.741 4.4 2.939 4.4s2.836-1.704 2.836-4.502V23.071c0-2.543-.587-4.17-2.887-4.17s-2.888 1.525-2.888 4.246m43.726 14.216v1.424c0 7.63-2.121 13.453-12.139 13.453-9.481 0-11.832-5.595-11.832-14.368v-13.81c0-6.942 2.555-13.3 12.267-13.3 10.452 0 11.781 6.968 11.781 12.487v1.984h-9.481v-2.544c0-2.543-.409-4.145-2.326-4.145s-2.274 1.602-2.274 4.145v17.548c0 2.34.408 4.069 2.376 4.069s2.326-1.679 2.326-4.349v-2.543l9.302-.05Zm12.983-25.99c1.533 10.58 3.22 23.117 3.475 28.279h.358c.562-6.46 1.636-14.165 3.604-28.28h10.069c-.563 2.239-7.335 34.79-8.715 40.995-2.3 10.35-5.29 12.716-12.165 12.716a33.54 33.54 0 0 1-4.6-.33v-8.367c.307 0 1.38.152 2.275.152a3.49 3.49 0 0 0 2.937-.646 3.457 3.457 0 0 0 1.331-2.685l-9.124-41.783 10.555-.051Zm19.729 0h4.012V3.616h9.788v7.757h4.601v8.773H210.3v20.93c0 1.831.256 2.925 2.556 2.925.593.01 1.185-.05 1.763-.178v7.629a16.784 16.784 0 0 1-5.647.814c-5.981 0-8.536-2.111-8.536-9.13v-22.99h-3.91l-.026-8.773Zm30.897 22.633v5.875c0 2.543.614 4.45 2.837 4.45 2.224 0 2.811-2.009 2.811-4.577v-.916h9.558v.56c0 5.391-1.661 12.842-12.343 12.842-10.683 0-12.625-5.874-12.625-14.14V24.496c0-6.612 3.067-13.733 12.778-13.733 8.51 0 12.42 5.087 12.42 13.682v9.562h-15.436Zm5.827-6.968v-3.942c0-3.102-.69-4.526-2.862-4.526s-2.913 1.348-2.913 4.526v3.942h5.775Zm27.831.052H246.59v8.315h14.465v-8.316ZM265.757.64h9.865v42.394h12.394l-.894 8.57h-21.365V.641Zm50.141 41.758c0 3.612 0 7.452.23 9.206h-9.174a21.47 21.47 0 0 1-.588-2.95 7.45 7.45 0 0 1-2.952 2.73 7.494 7.494 0 0 1-3.948.805c-6.185 0-8.638-5.645-8.638-11.8v-.737c0-10.3 7.028-12.716 14.541-12.716h.665v-4.73c0-2.72-.384-3.941-2.224-3.941-1.84 0-2.249 1.322-2.249 3.662v.94h-9.507v-.61c0-6.993 3.195-11.495 12.165-11.495 7.999 0 11.679 3.79 11.679 10.809v20.827Zm-9.762-8.646h-.946c-2.888 0-4.779 1.271-4.779 5.468v.508c0 2.798.895 4.222 2.811 4.222 1.917 0 2.914-1.399 2.914-5.493v-4.705Zm15.359-30.136h9.865v11.088a7.828 7.828 0 0 1 3.02-2.972 7.88 7.88 0 0 1 4.135-.97c6.083 0 8.485 4.603 8.485 11.978v14.598c0 8.672-1.457 14.902-9.379 14.902a6.669 6.669 0 0 1-4.012-.975 6.622 6.622 0 0 1-2.658-3.145c0 1.399-.154 2.543-.281 3.459h-9.252c.128-2.416 0-6.816 0-10.02l.077-37.943Zm15.64 34.84V24.369c0-3.026-.357-5.086-2.734-5.086s-3.041 1.805-3.041 5.34V38.66c0 3.713.945 5.086 2.913 5.086s2.862-1.322 2.862-5.29"/>
</svg>
