<svg xmlns="http://www.w3.org/2000/svg" width="243" height="71" fill="none" viewBox="0 0 243 71">
  <g clip-path="url(#a)">
    <path fill="#fff" d="M95.015 6.265h11.473v48.631h14.422l-1.024 9.84H95.015V6.264Zm31.96 58.47 1.024-9.903h8.58l-1.024 9.903h-8.58Zm16.455-58.47h11.112v25.473h.189c1.884-5.498 5.843-17.435 8.49-25.473h12.644L165.867 28.9l10.375 35.834h-12.39l-5.901-24.653-3.409 7.46v17.193H143.43V6.265Zm84.669 38.511v3.167c0 7.38-1.385 16.792-15.054 16.792-10.096 0-14.48-5.273-14.48-16.02v-26.92c0-10.169 5.171-15.53 14.751-15.53 12.587 0 14.636 8.126 14.636 15.779v3.673h-11.571v-4.983c0-3.216-.697-4.823-3.09-4.823s-3.13 1.535-3.13 4.823v29.163c0 3.118.532 5.248 3.122 5.248 2.589 0 3.212-1.784 3.212-5.514v-4.823l11.604-.032Zm-46.465 19.959 1.066-9.903h8.522l-1.024 9.903h-8.564Zm51.005 0 1.033-9.903h8.563l-1.032 9.903h-8.564Z"/>
  </g>
  <g clip-path="url(#b)">
    <path fill="#fff" d="m31.512 4.078-10.32 5.999a1.008 1.008 0 0 0-.503.908l.553 17.408a1.023 1.023 0 0 0 .562.88L34.6 35.545a1.016 1.016 0 0 0 .88 0l12.796-6.274a1.01 1.01 0 0 0 .561-.879l.553-17.495a1.015 1.015 0 0 0-.383-.834L36.47.23a.135.135 0 0 1 .14-.23l16.203 9.444a2.035 2.035 0 0 1 1.003 1.75v19.561c0 .355-.093.704-.27 1.01a2.002 2.002 0 0 1-.733.74L36.04 42.278a1.98 1.98 0 0 1-2.002 0l-16.776-9.785a2.008 2.008 0 0 1-.732-.74 2.03 2.03 0 0 1-.267-1.01V11.385a2.025 2.025 0 0 1 1.238-1.866L31.29 3.624a.25.25 0 0 1 .32.123.256.256 0 0 1-.098.331Zm-.648 54.167-11.649 5.748a.992.992 0 0 1-.879 0L5.54 57.72a.999.999 0 0 1-.562-.88l-.474-17.437a1.02 1.02 0 0 1 .499-.908l8.702-5.07a.125.125 0 0 0 .052-.164.123.123 0 0 0-.16-.06L1.284 37.99a2.017 2.017 0 0 0-.93.744A2.046 2.046 0 0 0 0 39.878v19.325a2.031 2.031 0 0 0 1.003 1.754l16.772 9.772a1.992 1.992 0 0 0 2.002 0l13.622-7.914-1.024-.596a3.032 3.032 0 0 1-1.1-1.114 3.067 3.067 0 0 1-.402-1.519l-.009-1.341Zm1.842-14.959-.145 15.896a2.035 2.035 0 0 0 1.003 1.77l16.76 9.769a2.009 2.009 0 0 0 2.006 0l16.606-9.69a2.01 2.01 0 0 0 .793-.849 2.03 2.03 0 0 0 .194-1.15l-2.089-17.05a.13.13 0 0 0-.126-.106.127.127 0 0 0-.126.106v14.042a1.022 1.022 0 0 1-.553.908l-15.273 7.653a.992.992 0 0 1-.916 0L38.112 57.71a1.002 1.002 0 0 1-.528-.883L37.46 43.28l-.95.525a2.976 2.976 0 0 1-2.918 0l-.888-.52Z"/>
    <path fill="#fff" d="m12.466 46.39.19 6.023a1.01 1.01 0 0 0 .562.875l5.118 2.499a1.004 1.004 0 0 0 .88 0l5.139-2.512a1.01 1.01 0 0 0 .561-.879l.19-6.007a1.02 1.02 0 0 0-.533-.925l-5.316-2.853a1.001 1.001 0 0 0-.946 0l-5.308 2.853a1.007 1.007 0 0 0-.537.925ZM42.06 17.83l-.199 6.21a1.53 1.53 0 0 1-.825 1.317l-5.321 2.607a1.488 1.488 0 0 1-1.321 0l-5.317-2.624a1.521 1.521 0 0 1-.826-1.312l-.214-6.199a1.528 1.528 0 0 1 .202-.808 1.51 1.51 0 0 1 .595-.579l5.514-2.958a1.488 1.488 0 0 1 1.412 0l5.52 2.958a1.532 1.532 0 0 1 .78 1.387Z"/>
  </g>
  <defs>
    <clipPath id="a">
      <path fill="#fff" d="M0 0h147.221v58.471H0z" transform="translate(95.015 6.265)"/>
    </clipPath>
    <clipPath id="b">
      <path fill="#fff" d="M0 0h69.956v71H0z"/>
    </clipPath>
  </defs>
</svg>
