<svg xmlns="http://www.w3.org/2000/svg" width="148" height="59" fill="none" viewBox="0 0 148 59">
  <g clip-path="url(#a)">
    <path fill="#fff" d="M.015.265h11.473v48.631H25.91l-1.024 9.84H.015V.264Zm31.96 58.47 1.024-9.903h8.58l-1.024 9.903h-8.58ZM48.43.265h11.112v25.473h.189C61.615 20.24 65.574 8.303 68.22.265h12.644L70.867 22.9l10.375 35.834h-12.39l-5.9-24.653-3.41 7.46v17.193H48.43V.265Zm84.669 38.511v3.167c0 7.38-1.385 16.792-15.054 16.792-10.096 0-14.48-5.273-14.48-16.02v-26.92c0-10.169 5.171-15.53 14.751-15.53 12.587 0 14.636 8.126 14.636 15.779v3.673h-11.571v-4.983c0-3.216-.697-4.823-3.09-4.823s-3.13 1.535-3.13 4.823v29.163c0 3.118.532 5.248 3.122 5.248 2.589 0 3.212-1.784 3.212-5.514v-4.823l11.604-.032ZM86.634 58.735l1.066-9.903h8.522l-1.024 9.903h-8.564Zm51.005 0 1.033-9.903h8.563l-1.032 9.903h-8.564Z"/>
  </g>
  <defs>
    <clipPath id="a">
      <path fill="#fff" d="M0 0h147.221v58.471H0z" transform="translate(.015 .265)"/>
    </clipPath>
  </defs>
</svg>
