<svg xmlns="http://www.w3.org/2000/svg" width="463" height="90" fill="none" viewBox="0 0 463 90">
  <g clip-path="url(#a)">
    <path fill="#fff" d="M116.791 18.64v50.964h21.365l.895-8.57h-12.395V18.641h-9.865Zm35.012 33.366v5.875c0 2.543.614 4.45 2.837 4.45 2.223 0 2.811-2.009 2.811-4.577v-.916h9.558v.56c0 5.391-1.661 12.842-12.343 12.842-10.683 0-12.625-5.874-12.625-14.14V42.496c0-6.612 3.067-13.732 12.778-13.732 8.485 0 12.42 5.086 12.42 13.681v9.562h-15.436Zm5.827-6.968v-3.942c0-3.102-.69-4.526-2.862-4.526s-2.914 1.348-2.914 4.526v3.942h5.776Zm22.668-15.157v30.06a3.23 3.23 0 0 0 1.024 1.952c.561.51 1.284.81 2.043.845a3.104 3.104 0 0 0 2.158-.765 3.076 3.076 0 0 0 1.037-2.032V29.88h9.762v29.45c0 8.417-5.75 10.757-13.059 10.757-7.309 0-12.599-3.103-12.599-10.936v-29.27h9.634Zm19.73 0h9.047v16.76h.23c.843-3.281 2.555-11.165 3.731-16.76h10.222l-5.801 15.437 5.878 24.286h-10.223l-2.274-15.512-1.866 4.653v10.86h-8.944V29.88Zm51.521 12.105v15.106c0 8.876-4.779 13.148-12.778 13.148-7.999 0-12.625-4.349-12.625-13.148V41.605c0-8.977 5.469-12.716 12.778-12.716s12.778 4.12 12.778 13.225m-15.64-.84V57.78c0 2.543.741 4.4 2.939 4.4s2.836-1.704 2.836-4.502V41.071c0-2.543-.587-4.17-2.887-4.17s-2.888 1.525-2.888 4.246m43.726 14.216v1.424c0 7.63-2.121 13.453-12.139 13.453-9.481 0-11.832-5.594-11.832-14.368v-13.81c0-6.942 2.555-13.3 12.267-13.3 10.452 0 11.781 6.968 11.781 12.487v1.984h-9.481V40.69c0-2.543-.409-4.146-2.326-4.146s-2.274 1.603-2.274 4.146v17.547c0 2.34.408 4.069 2.376 4.069s2.326-1.679 2.326-4.349v-2.543l9.302-.05Zm12.983-25.99c1.533 10.58 3.22 23.116 3.475 28.279h.358c.562-6.46 1.636-14.165 3.604-28.28h10.069c-.563 2.239-7.335 34.79-8.715 40.995-2.3 10.35-5.29 12.716-12.165 12.716a33.54 33.54 0 0 1-4.6-.33v-8.368c.307 0 1.38.153 2.275.153a3.49 3.49 0 0 0 2.937-.646 3.457 3.457 0 0 0 1.331-2.685l-9.124-41.783 10.555-.051Zm19.729 0h4.012v-7.757h9.788v7.757h4.601v8.773H326.3v20.93c0 1.831.256 2.925 2.556 2.925.593.01 1.185-.05 1.763-.178v7.629a16.784 16.784 0 0 1-5.647.814c-5.981 0-8.536-2.111-8.536-9.13v-22.99h-3.91l-.026-8.773Zm30.897 22.633v5.875c0 2.543.614 4.45 2.837 4.45 2.224 0 2.811-2.009 2.811-4.577v-.916h9.558v.56c0 5.391-1.661 12.842-12.343 12.842-10.683 0-12.625-5.874-12.625-14.14V42.496c0-6.612 3.067-13.732 12.778-13.732 8.51 0 12.42 5.086 12.42 13.681v9.562h-15.436Zm5.827-6.968v-3.942c0-3.102-.69-4.526-2.862-4.526s-2.913 1.348-2.913 4.526v3.942h5.775Zm27.831.052H362.59v8.315h14.465v-8.316Zm4.702-26.45h9.865v42.394h12.394l-.894 8.57h-21.365V18.641Zm50.141 41.758c0 3.612 0 7.452.23 9.206h-9.174a21.47 21.47 0 0 1-.588-2.95 7.45 7.45 0 0 1-2.952 2.73 7.494 7.494 0 0 1-3.948.805c-6.185 0-8.638-5.645-8.638-11.8v-.737c0-10.3 7.028-12.715 14.541-12.715h.665v-4.73c0-2.722-.384-3.942-2.224-3.942-1.84 0-2.249 1.322-2.249 3.662v.94h-9.507v-.61c0-6.993 3.195-11.494 12.165-11.494 7.999 0 11.679 3.789 11.679 10.808v20.828Zm-9.762-8.646h-.946c-2.888 0-4.779 1.271-4.779 5.468v.508c0 2.798.895 4.222 2.811 4.222 1.917 0 2.914-1.399 2.914-5.493v-4.705Zm15.359-30.136h9.865v11.088a7.828 7.828 0 0 1 3.02-2.972 7.88 7.88 0 0 1 4.135-.97c6.083 0 8.485 4.603 8.485 11.978v14.598c0 8.672-1.457 14.902-9.379 14.902a6.669 6.669 0 0 1-4.012-.975 6.622 6.622 0 0 1-2.658-3.145c0 1.399-.154 2.543-.281 3.459h-9.252c.128-2.416 0-6.816 0-10.02l.077-37.943Zm15.64 34.84V42.369c0-3.026-.357-5.086-2.734-5.086s-3.041 1.805-3.041 5.34V56.66c0 3.713.945 5.086 2.913 5.086s2.862-1.322 2.862-5.29ZM40.506 5.086l-13.263 7.63a1.35 1.35 0 0 0-.64 1.17l.716 22.048a1.267 1.267 0 0 0 .716 1.119l16.433 7.96a1.436 1.436 0 0 0 1.124 0l16.433-7.96a1.301 1.301 0 0 0 .74-1.12l.716-22.175a1.268 1.268 0 0 0-.51-1.043L46.87.28c-.153 0 0-.356.179-.255l20.828 11.953a2.534 2.534 0 0 1 1.303 2.238v24.77a2.534 2.534 0 0 1-1.303 2.212L46.333 53.583a2.565 2.565 0 0 1-2.555 0L22.183 41.198a2.533 2.533 0 0 1-1.278-2.212V14.419a2.534 2.534 0 0 1 .418-1.418 2.57 2.57 0 0 1 1.14-.947l17.89-7.451a.316.316 0 0 1 .422.14.312.312 0 0 1-.14.42m-.972 68.587L24.687 81.1a1.257 1.257 0 0 1-1.124 0L7.13 73.164a1.327 1.327 0 0 1-.715-1.12l-.64-22.099a1.292 1.292 0 0 1 .665-1.144l11.168-6.434a.154.154 0 0 0 .092-.14.153.153 0 0 0-.092-.14L1.661 48.166c-.489.182-.91.509-1.207.936A2.534 2.534 0 0 0 0 50.557v24.49a2.534 2.534 0 0 0 1.278 2.212l21.57 12.385a2.565 2.565 0 0 0 2.555 0l17.48-10.02-1.278-.788a3.924 3.924 0 0 1-1.417-1.423 3.902 3.902 0 0 1-.525-1.934v-1.73Zm2.377-18.896-.18 20.167a2.534 2.534 0 0 0 1.279 2.238l21.544 12.385a2.565 2.565 0 0 0 2.555 0L88.603 77.36a2.532 2.532 0 0 0 1.278-2.543L87.17 53.2c0-.178-.306-.178-.306 0v17.802a1.266 1.266 0 0 1-.715 1.144l-19.576 9.74a1.284 1.284 0 0 1-1.176 0L48.99 73.164a1.25 1.25 0 0 1-.69-1.12l-.153-17.165-1.227.661a3.873 3.873 0 0 1-3.757 0l-1.124-.687Z"/>
    <path fill="#fff" d="m16.024 58.796.23 7.63a1.292 1.292 0 0 0 .74 1.118l6.569 3.18a1.258 1.258 0 0 0 1.124 0l6.594-3.205a1.301 1.301 0 0 0 .74-1.119l.23-7.63a1.241 1.241 0 0 0-.664-1.169l-6.849-3.586a1.257 1.257 0 0 0-1.2 0l-6.824 3.611a1.275 1.275 0 0 0-.69 1.17Zm38.027-36.188-.255 7.91a1.9 1.9 0 0 1-1.074 1.678l-6.721 3.255a1.95 1.95 0 0 1-1.687 0l-6.849-3.332a1.966 1.966 0 0 1-1.175-1.602l-.256-7.833a1.977 1.977 0 0 1 1.022-1.78l7.08-3.738a1.976 1.976 0 0 1 1.84 0l7.053 3.738a1.938 1.938 0 0 1 1.022 1.78"/>
  </g>
  <defs>
    <clipPath id="a">
      <path fill="#fff" d="M0 0h463v90H0z"/>
    </clipPath>
  </defs>
</svg>
