<svg xmlns="http://www.w3.org/2000/svg" width="366" height="136" fill="none" viewBox="0 0 366 136">
  <g clip-path="url(#a)">
    <path fill="#fff" d="M174.584 7.231h12.881v54.99h16.193l-1.15 11.125h-27.924V7.231Zm35.882 66.115 1.15-11.198h9.633l-1.15 11.198h-9.633Zm18.475-66.115h12.475v28.804h.212c2.116-6.217 6.56-19.714 9.532-28.804h14.196l-11.224 25.596 11.647 40.519h-13.911l-6.624-27.877-3.828 8.435v19.442h-12.475V7.231ZM324 50.778v3.58c0 8.345-1.555 18.988-16.901 18.988-11.335 0-16.258-5.963-16.258-18.115v-30.44c0-11.497 5.806-17.56 16.561-17.56 14.132 0 16.432 9.19 16.432 17.842v4.154h-12.991v-5.635c0-3.636-.782-5.454-3.468-5.454-2.687 0-3.515 1.736-3.515 5.454v32.975c0 3.527.598 5.936 3.506 5.936 2.907 0 3.606-2.018 3.606-6.236v-5.453L324 50.778Zm-52.167 22.568 1.196-11.198h9.569l-1.15 11.198h-9.615Zm57.264 0 1.159-11.198h9.615l-1.159 11.198h-9.615Z"/>
  </g>
  <g clip-path="url(#b)">
    <path fill="#fff" d="M174.584 100.205h5.455v23.533h6.838l-.485 4.762h-11.808v-28.295Zm19.339 18.533v3.254c0 1.436.341 2.479 1.57 2.479s1.549-1.126 1.549-2.551v-.507h5.279v.31c0 2.996-.909 7.139-6.807 7.139-5.899 0-6.984-3.265-6.984-7.851v-7.562c0-3.678 1.694-7.624 7.004-7.624 4.701 0 6.86 2.81 6.86 7.593v5.32h-8.471Zm3.223-3.874v-2.19c0-1.725-.383-2.521-1.581-2.521-1.033 0-1.611.754-1.611 2.521v2.19h3.192Zm12.562-8.461v16.736a1.795 1.795 0 0 0 1.683 1.559 1.735 1.735 0 0 0 1.757-1.559v-16.736h5.402v16.405c0 4.669-3.181 5.961-7.231 5.961-4.215 0-6.963-1.725-6.963-6.064v-16.302h5.352Zm10.867 0h5v9.298h.134c.465-1.829 1.354-6.199 2.066-9.298h5.693l-3.213 8.585 3.213 13.512h-5.61l-1.26-8.605-1.033 2.582v6.023h-4.99v-22.097Zm28.471 6.767v8.388c0 4.928-2.645 7.304-7.118 7.304-4.473 0-6.973-2.428-6.973-7.304v-8.595c0-5 3.017-7.138 7.056-7.138 4.246 0 7.035 2.283 7.035 7.345Zm-8.647-.475v9.204c0 1.446.413 2.438 1.622 2.438s1.57-.94 1.57-2.5v-9.184c0-1.343-.32-2.314-1.591-2.314-1.27 0-1.601.847-1.601 2.356Zm24.246 7.892v.795c0 4.246-1.168 7.48-6.705 7.48-5.248 0-6.539-3.099-6.539-7.986v-7.665c0-3.863 1.457-7.386 6.777-7.386 5.775 0 6.508 3.863 6.508 6.921v1.106h-5.227v-1.343c0-1.498-.227-2.304-1.291-2.304-1.064 0-1.312.826-1.312 2.273v9.721c0 1.291.227 2.252 1.312 2.252 1.084 0 1.291-.93 1.291-2.418v-1.446h5.186Zm7.179-14.421c.899 5.867 1.777 12.83 1.932 15.733h.207c.31-3.595.909-7.862 1.994-15.702h5.568c-.31 1.239-4.05 19.318-4.825 22.727-1.27 5.754-2.923 7.076-6.725 7.076a17.572 17.572 0 0 1-2.531-.186v-4.638c.166 0 .765.082 1.261.082a1.898 1.898 0 0 0 1.562-.421 1.9 1.9 0 0 0 .679-1.469l-5-23.202h5.878Zm10.909 0h2.211v-4.308h5.413v4.308h2.531v4.814h-2.531v11.611c0 1.033.134 1.632 1.395 1.632.347.013.694-.018 1.033-.093v4.215c-1 .326-2.048.48-3.099.455-3.296 0-4.711-1.178-4.711-5.073V110.98h-2.159l-.083-4.814Zm17.066 12.572v3.254c0 1.436.341 2.479 1.57 2.479 1.23 0 1.55-1.126 1.55-2.551v-.507h5.279v.31c0 2.996-.909 7.139-6.808 7.139-5.744 0-6.983-3.265-6.983-7.851v-7.562c0-3.678 1.694-7.624 7.004-7.624 4.7 0 6.859 2.81 6.859 7.593v5.32h-8.471Zm3.213-3.874v-2.19c0-1.725-.372-2.521-1.581-2.521-1.033 0-1.601.754-1.601 2.521v2.19h3.182Zm15.392.031v4.628h-7.995v-4.628h7.995Zm2.593-14.69h5.444v23.533h6.839l-.485 4.762h-11.798v-28.295Zm27.634 23.192c0 1.994 0 4.132.134 5.103h-5.072a10.682 10.682 0 0 1-.33-1.642 4.14 4.14 0 0 1-3.812 1.973c-3.409 0-4.763-3.099-4.763-6.55v-.382c0-5.723 3.874-7.097 8.027-7.097h.362v-2.624c0-1.508-.217-2.19-1.219-2.19s-1.25.744-1.25 2.066v.548h-5.248v-.341c0-3.885 1.766-6.385 6.725-6.385 4.411 0 6.446 2.067 6.446 6.002v11.519Zm-5.392-4.804h-.517c-1.601 0-2.655.703-2.655 3.037v.269c0 1.55.506 2.345 1.56 2.345s1.612-.775 1.612-3.099v-2.552Zm8.563-16.735h5.445v6.147a4.352 4.352 0 0 1 3.966-2.18c3.348 0 4.68 2.551 4.68 6.642v8.11c0 4.814-.806 8.264-5.165 8.264a3.685 3.685 0 0 1-3.678-2.283c0 .775-.093 1.405-.155 1.921h-5.165c.072-1.342.052-3.78.052-5.557l.02-21.064Zm8.637 19.339v-7.821c0-1.673-.197-2.83-1.509-2.83-1.311 0-1.683 1.033-1.683 2.954v7.81c0 2.066.526 2.831 1.611 2.831s1.581-.734 1.581-2.944Z"/>
  </g>
  <g clip-path="url(#c)">
    <path fill="#fff" d="m60.495 7.773-19.81 11.434a1.928 1.928 0 0 0-.968 1.73L40.78 54.12a1.94 1.94 0 0 0 1.078 1.675l24.566 11.958a1.96 1.96 0 0 0 1.688 0l24.565-11.958a1.935 1.935 0 0 0 1.078-1.675l1.062-33.348a1.925 1.925 0 0 0-.737-1.588L70.012.437a.257.257 0 0 1 .27-.437l31.103 18a3.847 3.847 0 0 1 1.926 3.335V58.62a3.847 3.847 0 0 1-1.926 3.335L69.188 80.582a3.822 3.822 0 0 1-3.843 0L33.14 61.932a3.839 3.839 0 0 1-1.918-3.335V21.7a3.864 3.864 0 0 1 2.378-3.557L60.067 6.908a.483.483 0 0 1 .645.586.484.484 0 0 1-.217.28Zm-1.244 103.243-22.363 10.958a1.915 1.915 0 0 1-1.688 0l-24.565-11.958a1.908 1.908 0 0 1-1.078-1.675l-.911-33.237a1.933 1.933 0 0 1 .958-1.73L26.31 63.71a.238.238 0 0 0-.206-.429l-23.64 9.131A3.869 3.869 0 0 0 0 76.01v36.834a3.873 3.873 0 0 0 1.926 3.342l32.197 18.627a3.838 3.838 0 0 0 3.843 0l26.15-15.085-1.965-1.136a5.811 5.811 0 0 1-2.885-5.018l-.015-2.557Zm3.534-28.512-.277 30.299a3.866 3.866 0 0 0 1.926 3.374l32.173 18.62a3.883 3.883 0 0 0 3.851 0l31.88-18.469a3.85 3.85 0 0 0 1.894-3.811l-4.01-32.498a.245.245 0 0 0-.483 0v26.765a1.934 1.934 0 0 1-1.062 1.731l-29.32 14.586a1.91 1.91 0 0 1-1.76 0L73.167 110a1.914 1.914 0 0 1-1.015-1.683l-.238-25.82-1.822 1a5.744 5.744 0 0 1-5.603 0l-1.704-.993Z"/>
    <path fill="#fff" d="m23.932 88.42.364 11.48a1.914 1.914 0 0 0 1.078 1.668l9.826 4.764a1.942 1.942 0 0 0 1.688 0l9.866-4.788a1.934 1.934 0 0 0 1.078-1.675l.364-11.45a1.932 1.932 0 0 0-1.022-1.762l-10.206-5.44a1.93 1.93 0 0 0-1.815 0l-10.191 5.44a1.927 1.927 0 0 0-1.03 1.762Zm56.81-54.437-.38 11.839a2.902 2.902 0 0 1-1.585 2.508L68.562 53.3a2.873 2.873 0 0 1-2.536 0l-10.206-5a2.88 2.88 0 0 1-1.585-2.501l-.412-11.815a2.895 2.895 0 0 1 1.53-2.644l10.586-5.637a2.872 2.872 0 0 1 2.71 0l10.595 5.637a2.895 2.895 0 0 1 1.498 2.644Z"/>
  </g>
  <path stroke="#fff" d="M174.584 89.375h191.113"/>
  <defs>
    <clipPath id="a">
      <path fill="#fff" d="M0 0h165.287v66.115H0z" transform="translate(174.584 7.231)"/>
    </clipPath>
    <clipPath id="b">
      <path fill="#fff" d="M0 0h191.309v35.795H0z" transform="translate(174.584 100.205)"/>
    </clipPath>
    <clipPath id="c">
      <path fill="#fff" d="M0 0h134.295v135.329H0z"/>
    </clipPath>
  </defs>
</svg>
